<svg width="204" height="148" viewBox="0 0 204 148" fill="none" xmlns="http://www.w3.org/2000/svg">
    <path d="M190.55 129.044C190.55 127.918 191.532 127.005 192.744 127.005C193.956 127.005 194.938 127.918 194.938 129.044C194.938 130.17 193.956 131.083 192.744 131.083C191.532 131.083 190.55 130.17 190.55 129.044Z"
          fill="black"/>
    <path d="M190.55 145.938C190.55 144.812 191.532 143.899 192.744 143.899C193.956 143.899 194.938 144.812 194.938 145.938C194.938 147.065 193.956 147.978 192.744 147.978C191.532 147.978 190.55 147.065 190.55 145.938Z"
          fill="black"/>
    <path d="M190.863 111.638C190.863 110.672 191.705 109.89 192.744 109.89C193.783 109.89 194.625 110.672 194.625 111.638C194.625 112.603 193.783 113.386 192.744 113.386C191.705 113.386 190.863 112.603 190.863 111.638Z"
          fill="black"/>
    <path d="M190.863 94.7436C190.863 93.7782 191.705 92.9956 192.744 92.9956C193.783 92.9956 194.625 93.7782 194.625 94.7436C194.625 95.7089 193.783 96.4915 192.744 96.4915C191.705 96.4915 190.863 95.7089 190.863 94.7436Z"
          fill="black"/>
    <path d="M190.863 77.8494C190.863 76.884 191.705 76.1014 192.744 76.1014C193.783 76.1014 194.625 76.884 194.625 77.8494C194.625 78.8147 193.783 79.5973 192.744 79.5973C191.705 79.5973 190.863 78.8147 190.863 77.8494Z"
          fill="black"/>
    <path d="M190.863 60.9551C190.863 59.9898 191.705 59.2072 192.744 59.2072C193.783 59.2072 194.625 59.9898 194.625 60.9551C194.625 61.9205 193.783 62.7031 192.744 62.7031C191.705 62.7031 190.863 61.9205 190.863 60.9551Z"
          fill="black"/>
    <path d="M191.177 43.6968C191.177 42.8924 191.878 42.2402 192.744 42.2402C193.61 42.2402 194.311 42.8924 194.311 43.6968C194.311 44.5013 193.61 45.1534 192.744 45.1534C191.878 45.1534 191.177 44.5013 191.177 43.6968Z"
          fill="black"/>
    <path d="M191.177 26.8026C191.177 25.9982 191.878 25.346 192.744 25.346C193.61 25.346 194.311 25.9982 194.311 26.8026C194.311 27.6071 193.61 28.2592 192.744 28.2592C191.878 28.2592 191.177 27.6071 191.177 26.8026Z"
          fill="black"/>
    <path d="M191.49 9.68756C191.49 9.04399 192.051 8.52234 192.744 8.52234C193.437 8.52234 193.998 9.04399 193.998 9.68756C193.998 10.3311 193.437 10.8528 192.744 10.8528C192.051 10.8528 191.49 10.3311 191.49 9.68756Z"
          fill="black"/>
    <path d="M198.722 137.491C198.722 136.365 199.705 135.452 200.917 135.452C202.129 135.452 203.111 136.365 203.111 137.491C203.111 138.617 202.129 139.53 200.917 139.53C199.705 139.53 198.722 138.617 198.722 137.491Z"
          fill="black"/>
    <path d="M199.036 120.085C199.036 119.119 199.878 118.337 200.917 118.337C201.956 118.337 202.798 119.119 202.798 120.085C202.798 121.05 201.956 121.833 200.917 121.833C199.878 121.833 199.036 121.05 199.036 120.085Z"
          fill="black"/>
    <path d="M199.036 103.191C199.036 102.225 199.878 101.443 200.917 101.443C201.956 101.443 202.798 102.225 202.798 103.191C202.798 104.156 201.956 104.939 200.917 104.939C199.878 104.939 199.036 104.156 199.036 103.191Z"
          fill="black"/>
    <path d="M199.036 86.2964C199.036 85.3311 199.878 84.5485 200.917 84.5485C201.956 84.5485 202.798 85.3311 202.798 86.2964C202.798 87.2618 201.956 88.0444 200.917 88.0444C199.878 88.0444 199.036 87.2618 199.036 86.2964Z"
          fill="black"/>
    <path d="M199.036 69.4023C199.036 68.4369 199.878 67.6544 200.917 67.6544C201.956 67.6544 202.798 68.4369 202.798 69.4023C202.798 70.3676 201.956 71.1502 200.917 71.1502C199.878 71.1502 199.036 70.3676 199.036 69.4023Z"
          fill="black"/>
    <path d="M199.349 52.1439C199.349 51.3395 200.051 50.6873 200.917 50.6873C201.782 50.6873 202.484 51.3395 202.484 52.1439C202.484 52.9484 201.782 53.6005 200.917 53.6005C200.051 53.6005 199.349 52.9484 199.349 52.1439Z"
          fill="black"/>
    <path d="M199.349 35.2498C199.349 34.4453 200.051 33.7932 200.917 33.7932C201.782 33.7932 202.484 34.4453 202.484 35.2498C202.484 36.0542 201.782 36.7064 200.917 36.7064C200.051 36.7064 199.349 36.0542 199.349 35.2498Z"
          fill="black"/>
    <path d="M199.663 18.1347C199.663 17.4911 200.224 16.9694 200.917 16.9694C201.609 16.9694 202.171 17.4911 202.171 18.1347C202.171 18.7783 201.609 19.3 200.917 19.3C200.224 19.3 199.663 18.7783 199.663 18.1347Z"
          fill="black"/>
    <path d="M199.663 1.16528C199.663 0.521713 200.224 0 200.917 0C201.609 0 202.171 0.521713 202.171 1.16528C202.171 1.80885 201.609 2.33057 200.917 2.33057C200.224 2.33057 199.663 1.80885 199.663 1.16528Z"
          fill="black"/>
    <path d="M172.972 129.044C172.972 127.918 173.955 127.005 175.167 127.005C176.379 127.005 177.361 127.918 177.361 129.044C177.361 130.17 176.379 131.083 175.167 131.083C173.955 131.083 172.972 130.17 172.972 129.044Z"
          fill="black"/>
    <path d="M172.972 145.938C172.972 144.812 173.955 143.899 175.167 143.899C176.379 143.899 177.361 144.812 177.361 145.938C177.361 147.065 176.379 147.978 175.167 147.978C173.955 147.978 172.972 147.065 172.972 145.938Z"
          fill="black"/>
    <path d="M173.286 111.638C173.286 110.672 174.128 109.89 175.167 109.89C176.205 109.89 177.048 110.672 177.048 111.638C177.048 112.603 176.205 113.386 175.167 113.386C174.128 113.386 173.286 112.603 173.286 111.638Z"
          fill="black"/>
    <path d="M173.286 94.7436C173.286 93.7782 174.128 92.9956 175.167 92.9956C176.205 92.9956 177.048 93.7782 177.048 94.7436C177.048 95.7089 176.205 96.4915 175.167 96.4915C174.128 96.4915 173.286 95.7089 173.286 94.7436Z"
          fill="black"/>
    <path d="M173.286 77.8494C173.286 76.884 174.128 76.1014 175.167 76.1014C176.205 76.1014 177.048 76.884 177.048 77.8494C177.048 78.8147 176.205 79.5973 175.167 79.5973C174.128 79.5973 173.286 78.8147 173.286 77.8494Z"
          fill="black"/>
    <path d="M173.286 60.9551C173.286 59.9898 174.128 59.2072 175.167 59.2072C176.205 59.2072 177.048 59.9898 177.048 60.9551C177.048 61.9205 176.205 62.7031 175.167 62.7031C174.128 62.7031 173.286 61.9205 173.286 60.9551Z"
          fill="black"/>
    <path d="M173.599 43.6968C173.599 42.8924 174.301 42.2402 175.167 42.2402C176.032 42.2402 176.734 42.8924 176.734 43.6968C176.734 44.5013 176.032 45.1534 175.167 45.1534C174.301 45.1534 173.599 44.5013 173.599 43.6968Z"
          fill="black"/>
    <path d="M173.599 26.8026C173.599 25.9982 174.301 25.346 175.167 25.346C176.032 25.346 176.734 25.9982 176.734 26.8026C176.734 27.6071 176.032 28.2592 175.167 28.2592C174.301 28.2592 173.599 27.6071 173.599 26.8026Z"
          fill="black"/>
    <path d="M173.913 9.68756C173.913 9.04399 174.474 8.52234 175.167 8.52234C175.859 8.52234 176.421 9.04399 176.421 9.68756C176.421 10.3311 175.859 10.8528 175.167 10.8528C174.474 10.8528 173.913 10.3311 173.913 9.68756Z"
          fill="black"/>
    <path d="M181.145 137.491C181.145 136.365 182.127 135.452 183.339 135.452C184.551 135.452 185.534 136.365 185.534 137.491C185.534 138.617 184.551 139.53 183.339 139.53C182.127 139.53 181.145 138.617 181.145 137.491Z"
          fill="black"/>
    <path d="M181.458 120.085C181.458 119.119 182.301 118.337 183.339 118.337C184.378 118.337 185.22 119.119 185.22 120.085C185.22 121.05 184.378 121.833 183.339 121.833C182.301 121.833 181.458 121.05 181.458 120.085Z"
          fill="black"/>
    <path d="M181.458 103.191C181.458 102.225 182.301 101.443 183.339 101.443C184.378 101.443 185.22 102.225 185.22 103.191C185.22 104.156 184.378 104.939 183.339 104.939C182.301 104.939 181.458 104.156 181.458 103.191Z"
          fill="black"/>
    <path d="M181.458 86.2964C181.458 85.3311 182.301 84.5485 183.339 84.5485C184.378 84.5485 185.22 85.3311 185.22 86.2964C185.22 87.2618 184.378 88.0444 183.339 88.0444C182.301 88.0444 181.458 87.2618 181.458 86.2964Z"
          fill="black"/>
    <path d="M181.458 69.4023C181.458 68.4369 182.301 67.6544 183.339 67.6544C184.378 67.6544 185.22 68.4369 185.22 69.4023C185.22 70.3676 184.378 71.1502 183.339 71.1502C182.301 71.1502 181.458 70.3676 181.458 69.4023Z"
          fill="black"/>
    <path d="M181.772 52.1439C181.772 51.3395 182.474 50.6873 183.339 50.6873C184.205 50.6873 184.907 51.3395 184.907 52.1439C184.907 52.9484 184.205 53.6005 183.339 53.6005C182.474 53.6005 181.772 52.9484 181.772 52.1439Z"
          fill="black"/>
    <path d="M181.772 35.2498C181.772 34.4453 182.474 33.7932 183.339 33.7932C184.205 33.7932 184.907 34.4453 184.907 35.2498C184.907 36.0542 184.205 36.7064 183.339 36.7064C182.474 36.7064 181.772 36.0542 181.772 35.2498Z"
          fill="black"/>
    <path d="M182.085 18.1347C182.085 17.4911 182.647 16.9694 183.339 16.9694C184.032 16.9694 184.593 17.4911 184.593 18.1347C184.593 18.7783 184.032 19.3 183.339 19.3C182.647 19.3 182.085 18.7783 182.085 18.1347Z"
          fill="black"/>
    <path d="M182.085 1.16528C182.085 0.521713 182.647 0 183.339 0C184.032 0 184.593 0.521713 184.593 1.16528C184.593 1.80885 184.032 2.33057 183.339 2.33057C182.647 2.33057 182.085 1.80885 182.085 1.16528Z"
          fill="black"/>
    <path d="M52.4385 129.044C52.4385 127.918 53.4209 127.005 54.6329 127.005C55.8448 127.005 56.8273 127.918 56.8273 129.044C56.8273 130.17 55.8448 131.083 54.6329 131.083C53.4209 131.083 52.4385 130.17 52.4385 129.044Z"
          fill="black"/>
    <path d="M52.4385 145.938C52.4385 144.812 53.4209 143.899 54.6329 143.899C55.8448 143.899 56.8273 144.812 56.8273 145.938C56.8273 147.065 55.8448 147.978 54.6329 147.978C53.4209 147.978 52.4385 147.065 52.4385 145.938Z"
          fill="black"/>
    <path d="M52.752 111.638C52.752 110.672 53.5941 109.89 54.6329 109.89C55.6717 109.89 56.5138 110.672 56.5138 111.638C56.5138 112.603 55.6717 113.386 54.6329 113.386C53.5941 113.386 52.752 112.603 52.752 111.638Z"
          fill="black"/>
    <path d="M52.752 94.7436C52.752 93.7782 53.5941 92.9956 54.6329 92.9956C55.6717 92.9956 56.5138 93.7782 56.5138 94.7436C56.5138 95.7089 55.6717 96.4915 54.6329 96.4915C53.5941 96.4915 52.752 95.7089 52.752 94.7436Z"
          fill="black"/>
    <path d="M52.752 77.8494C52.752 76.884 53.5941 76.1014 54.6329 76.1014C55.6717 76.1014 56.5138 76.884 56.5138 77.8494C56.5138 78.8147 55.6717 79.5973 54.6329 79.5973C53.5941 79.5973 52.752 78.8147 52.752 77.8494Z"
          fill="black"/>
    <path d="M52.752 60.9551C52.752 59.9898 53.5941 59.2072 54.6329 59.2072C55.6717 59.2072 56.5138 59.9898 56.5138 60.9551C56.5138 61.9205 55.6717 62.7031 54.6329 62.7031C53.5941 62.7031 52.752 61.9205 52.752 60.9551Z"
          fill="black"/>
    <path d="M53.0654 43.6968C53.0654 42.8924 53.7672 42.2402 54.6329 42.2402C55.4986 42.2402 56.2003 42.8924 56.2003 43.6968C56.2003 44.5013 55.4986 45.1534 54.6329 45.1534C53.7672 45.1534 53.0654 44.5013 53.0654 43.6968Z"
          fill="black"/>
    <path d="M53.0654 26.8026C53.0654 25.9982 53.7672 25.346 54.6329 25.346C55.4986 25.346 56.2003 25.9982 56.2003 26.8026C56.2003 27.6071 55.4986 28.2592 54.6329 28.2592C53.7672 28.2592 53.0654 27.6071 53.0654 26.8026Z"
          fill="black"/>
    <path d="M53.3789 9.68756C53.3789 9.04399 53.9403 8.52234 54.6329 8.52234C55.3254 8.52234 55.8868 9.04399 55.8868 9.68756C55.8868 10.3311 55.3254 10.8528 54.6329 10.8528C53.9403 10.8528 53.3789 10.3311 53.3789 9.68756Z"
          fill="black"/>
    <path d="M60.6112 137.491C60.6112 136.365 61.5937 135.452 62.8056 135.452C64.0175 135.452 65 136.365 65 137.491C65 138.617 64.0175 139.53 62.8056 139.53C61.5937 139.53 60.6112 138.617 60.6112 137.491Z"
          fill="black"/>
    <path d="M60.9247 120.085C60.9247 119.119 61.7668 118.337 62.8056 118.337C63.8444 118.337 64.6865 119.119 64.6865 120.085C64.6865 121.05 63.8444 121.833 62.8056 121.833C61.7668 121.833 60.9247 121.05 60.9247 120.085Z"
          fill="black"/>
    <path d="M60.9247 103.191C60.9247 102.225 61.7668 101.443 62.8056 101.443C63.8444 101.443 64.6865 102.225 64.6865 103.191C64.6865 104.156 63.8444 104.939 62.8056 104.939C61.7668 104.939 60.9247 104.156 60.9247 103.191Z"
          fill="black"/>
    <path d="M60.9247 86.2964C60.9247 85.3311 61.7668 84.5485 62.8056 84.5485C63.8444 84.5485 64.6865 85.3311 64.6865 86.2964C64.6865 87.2618 63.8444 88.0444 62.8056 88.0444C61.7668 88.0444 60.9247 87.2618 60.9247 86.2964Z"
          fill="black"/>
    <path d="M60.9247 69.4023C60.9247 68.4369 61.7668 67.6544 62.8056 67.6544C63.8444 67.6544 64.6865 68.4369 64.6865 69.4023C64.6865 70.3676 63.8444 71.1502 62.8056 71.1502C61.7668 71.1502 60.9247 70.3676 60.9247 69.4023Z"
          fill="black"/>
    <path d="M61.2382 52.1439C61.2382 51.3395 61.9399 50.6873 62.8056 50.6873C63.6713 50.6873 64.3731 51.3395 64.3731 52.1439C64.3731 52.9484 63.6713 53.6005 62.8056 53.6005C61.9399 53.6005 61.2382 52.9484 61.2382 52.1439Z"
          fill="black"/>
    <path d="M61.2382 35.2498C61.2382 34.4453 61.9399 33.7932 62.8056 33.7932C63.6713 33.7932 64.3731 34.4453 64.3731 35.2498C64.3731 36.0542 63.6713 36.7064 62.8056 36.7064C61.9399 36.7064 61.2382 36.0542 61.2382 35.2498Z"
          fill="black"/>
    <path d="M61.5517 18.1347C61.5517 17.4911 62.1131 16.9694 62.8056 16.9694C63.4981 16.9694 64.0596 17.4911 64.0596 18.1347C64.0596 18.7783 63.4981 19.3 62.8056 19.3C62.1131 19.3 61.5517 18.7783 61.5517 18.1347Z"
          fill="black"/>
    <path d="M61.5517 1.16528C61.5517 0.521713 62.1131 0 62.8056 0C63.4981 0 64.0596 0.521713 64.0596 1.16528C64.0596 1.80885 63.4981 2.33057 62.8056 2.33057C62.1131 2.33057 61.5517 1.80885 61.5517 1.16528Z"
          fill="black"/>
    <path d="M34.8611 129.044C34.8611 127.918 35.8436 127.005 37.0556 127.005C38.2675 127.005 39.25 127.918 39.25 129.044C39.25 130.17 38.2675 131.083 37.0556 131.083C35.8436 131.083 34.8611 130.17 34.8611 129.044Z"
          fill="black"/>
    <path d="M34.8611 145.938C34.8611 144.812 35.8436 143.899 37.0556 143.899C38.2675 143.899 39.25 144.812 39.25 145.938C39.25 147.065 38.2675 147.978 37.0556 147.978C35.8436 147.978 34.8611 147.065 34.8611 145.938Z"
          fill="black"/>
    <path d="M35.1746 111.638C35.1746 110.672 36.0168 109.89 37.0556 109.89C38.0944 109.89 38.9365 110.672 38.9365 111.638C38.9365 112.603 38.0944 113.386 37.0556 113.386C36.0168 113.386 35.1746 112.603 35.1746 111.638Z"
          fill="black"/>
    <path d="M35.1746 94.7436C35.1746 93.7782 36.0168 92.9956 37.0556 92.9956C38.0944 92.9956 38.9365 93.7782 38.9365 94.7436C38.9365 95.7089 38.0944 96.4915 37.0556 96.4915C36.0168 96.4915 35.1746 95.7089 35.1746 94.7436Z"
          fill="black"/>
    <path d="M35.1746 77.8494C35.1746 76.884 36.0168 76.1014 37.0556 76.1014C38.0944 76.1014 38.9365 76.884 38.9365 77.8494C38.9365 78.8147 38.0944 79.5973 37.0556 79.5973C36.0168 79.5973 35.1746 78.8147 35.1746 77.8494Z"
          fill="black"/>
    <path d="M35.1746 60.9551C35.1746 59.9898 36.0168 59.2072 37.0556 59.2072C38.0944 59.2072 38.9365 59.9898 38.9365 60.9551C38.9365 61.9205 38.0944 62.7031 37.0556 62.7031C36.0168 62.7031 35.1746 61.9205 35.1746 60.9551Z"
          fill="black"/>
    <path d="M35.4881 43.6968C35.4881 42.8924 36.1899 42.2402 37.0556 42.2402C37.9212 42.2402 38.623 42.8924 38.623 43.6968C38.623 44.5013 37.9212 45.1534 37.0556 45.1534C36.1899 45.1534 35.4881 44.5013 35.4881 43.6968Z"
          fill="black"/>
    <path d="M35.4881 26.8026C35.4881 25.9982 36.1899 25.346 37.0556 25.346C37.9212 25.346 38.623 25.9982 38.623 26.8026C38.623 27.6071 37.9212 28.2592 37.0556 28.2592C36.1899 28.2592 35.4881 27.6071 35.4881 26.8026Z"
          fill="black"/>
    <path d="M35.8016 9.68756C35.8016 9.04399 36.363 8.52234 37.0556 8.52234C37.7481 8.52234 38.3095 9.04399 38.3095 9.68756C38.3095 10.3311 37.7481 10.8528 37.0556 10.8528C36.363 10.8528 35.8016 10.3311 35.8016 9.68756Z"
          fill="black"/>
    <path d="M43.0338 137.491C43.0338 136.365 44.0163 135.452 45.2282 135.452C46.4402 135.452 47.4226 136.365 47.4226 137.491C47.4226 138.617 46.4402 139.53 45.2282 139.53C44.0163 139.53 43.0338 138.617 43.0338 137.491Z"
          fill="black"/>
    <path d="M43.3473 120.085C43.3473 119.119 44.1894 118.337 45.2282 118.337C46.267 118.337 47.1091 119.119 47.1091 120.085C47.1091 121.05 46.267 121.833 45.2282 121.833C44.1894 121.833 43.3473 121.05 43.3473 120.085Z"
          fill="black"/>
    <path d="M43.3473 103.191C43.3473 102.225 44.1894 101.443 45.2282 101.443C46.267 101.443 47.1091 102.225 47.1091 103.191C47.1091 104.156 46.267 104.939 45.2282 104.939C44.1894 104.939 43.3473 104.156 43.3473 103.191Z"
          fill="black"/>
    <path d="M43.3473 86.2964C43.3473 85.3311 44.1894 84.5485 45.2282 84.5485C46.267 84.5485 47.1091 85.3311 47.1091 86.2964C47.1091 87.2618 46.267 88.0444 45.2282 88.0444C44.1894 88.0444 43.3473 87.2618 43.3473 86.2964Z"
          fill="black"/>
    <path d="M43.3473 69.4023C43.3473 68.4369 44.1894 67.6544 45.2282 67.6544C46.267 67.6544 47.1091 68.4369 47.1091 69.4023C47.1091 70.3676 46.267 71.1502 45.2282 71.1502C44.1894 71.1502 43.3473 70.3676 43.3473 69.4023Z"
          fill="black"/>
    <path d="M43.6608 52.1439C43.6608 51.3395 44.3625 50.6873 45.2282 50.6873C46.0939 50.6873 46.7957 51.3395 46.7957 52.1439C46.7957 52.9484 46.0939 53.6005 45.2282 53.6005C44.3625 53.6005 43.6608 52.9484 43.6608 52.1439Z"
          fill="black"/>
    <path d="M43.6608 35.2498C43.6608 34.4453 44.3625 33.7932 45.2282 33.7932C46.0939 33.7932 46.7957 34.4453 46.7957 35.2498C46.7957 36.0542 46.0939 36.7064 45.2282 36.7064C44.3625 36.7064 43.6608 36.0542 43.6608 35.2498Z"
          fill="black"/>
    <path d="M43.9743 18.1347C43.9743 17.4911 44.5357 16.9694 45.2282 16.9694C45.9207 16.9694 46.4822 17.4911 46.4822 18.1347C46.4822 18.7783 45.9207 19.3 45.2282 19.3C44.5357 19.3 43.9743 18.7783 43.9743 18.1347Z"
          fill="black"/>
    <path d="M43.9743 1.16528C43.9743 0.521713 44.5357 0 45.2282 0C45.9207 0 46.4822 0.521713 46.4822 1.16528C46.4822 1.80885 45.9207 2.33057 45.2282 2.33057C44.5357 2.33057 43.9743 1.80885 43.9743 1.16528Z"
          fill="black"/>
    <path d="M121.494 129.044C121.494 127.918 122.477 127.005 123.688 127.005C124.9 127.005 125.883 127.918 125.883 129.044C125.883 130.17 124.9 131.083 123.688 131.083C122.477 131.083 121.494 130.17 121.494 129.044Z"
          fill="black"/>
    <path d="M121.494 145.938C121.494 144.812 122.477 143.899 123.688 143.899C124.9 143.899 125.883 144.812 125.883 145.938C125.883 147.065 124.9 147.978 123.688 147.978C122.477 147.978 121.494 147.065 121.494 145.938Z"
          fill="black"/>
    <path d="M121.808 111.638C121.808 110.672 122.65 109.89 123.688 109.89C124.727 109.89 125.569 110.672 125.569 111.638C125.569 112.603 124.727 113.386 123.688 113.386C122.65 113.386 121.808 112.603 121.808 111.638Z"
          fill="black"/>
    <path d="M121.808 94.7436C121.808 93.7782 122.65 92.9956 123.688 92.9956C124.727 92.9956 125.569 93.7782 125.569 94.7436C125.569 95.7089 124.727 96.4915 123.688 96.4915C122.65 96.4915 121.808 95.7089 121.808 94.7436Z"
          fill="black"/>
    <path d="M121.808 77.8494C121.808 76.884 122.65 76.1014 123.688 76.1014C124.727 76.1014 125.569 76.884 125.569 77.8494C125.569 78.8147 124.727 79.5973 123.688 79.5973C122.65 79.5973 121.808 78.8147 121.808 77.8494Z"
          fill="black"/>
    <path d="M121.808 60.9551C121.808 59.9898 122.65 59.2072 123.688 59.2072C124.727 59.2072 125.569 59.9898 125.569 60.9551C125.569 61.9205 124.727 62.7031 123.688 62.7031C122.65 62.7031 121.808 61.9205 121.808 60.9551Z"
          fill="black"/>
    <path d="M122.121 43.6968C122.121 42.8924 122.823 42.2402 123.688 42.2402C124.554 42.2402 125.256 42.8924 125.256 43.6968C125.256 44.5013 124.554 45.1534 123.688 45.1534C122.823 45.1534 122.121 44.5013 122.121 43.6968Z"
          fill="black"/>
    <path d="M122.121 26.8026C122.121 25.9982 122.823 25.346 123.688 25.346C124.554 25.346 125.256 25.9982 125.256 26.8026C125.256 27.6071 124.554 28.2592 123.688 28.2592C122.823 28.2592 122.121 27.6071 122.121 26.8026Z"
          fill="black"/>
    <path d="M122.434 9.68756C122.434 9.04399 122.996 8.52234 123.688 8.52234C124.381 8.52234 124.942 9.04399 124.942 9.68756C124.942 10.3311 124.381 10.8528 123.688 10.8528C122.996 10.8528 122.434 10.3311 122.434 9.68756Z"
          fill="black"/>
    <path d="M129.667 137.491C129.667 136.365 130.649 135.452 131.861 135.452C133.073 135.452 134.056 136.365 134.056 137.491C134.056 138.617 133.073 139.53 131.861 139.53C130.649 139.53 129.667 138.617 129.667 137.491Z"
          fill="black"/>
    <path d="M129.98 120.085C129.98 119.119 130.822 118.337 131.861 118.337C132.9 118.337 133.742 119.119 133.742 120.085C133.742 121.05 132.9 121.833 131.861 121.833C130.822 121.833 129.98 121.05 129.98 120.085Z"
          fill="black"/>
    <path d="M129.98 103.191C129.98 102.225 130.822 101.443 131.861 101.443C132.9 101.443 133.742 102.225 133.742 103.191C133.742 104.156 132.9 104.939 131.861 104.939C130.822 104.939 129.98 104.156 129.98 103.191Z"
          fill="black"/>
    <path d="M129.98 86.2964C129.98 85.3311 130.822 84.5485 131.861 84.5485C132.9 84.5485 133.742 85.3311 133.742 86.2964C133.742 87.2618 132.9 88.0444 131.861 88.0444C130.822 88.0444 129.98 87.2618 129.98 86.2964Z"
          fill="black"/>
    <path d="M129.98 69.4023C129.98 68.4369 130.822 67.6544 131.861 67.6544C132.9 67.6544 133.742 68.4369 133.742 69.4023C133.742 70.3676 132.9 71.1502 131.861 71.1502C130.822 71.1502 129.98 70.3676 129.98 69.4023Z"
          fill="black"/>
    <path d="M130.294 52.1439C130.294 51.3395 130.995 50.6873 131.861 50.6873C132.727 50.6873 133.429 51.3395 133.429 52.1439C133.429 52.9484 132.727 53.6005 131.861 53.6005C130.995 53.6005 130.294 52.9484 130.294 52.1439Z"
          fill="black"/>
    <path d="M130.294 35.2498C130.294 34.4453 130.995 33.7932 131.861 33.7932C132.727 33.7932 133.429 34.4453 133.429 35.2498C133.429 36.0542 132.727 36.7064 131.861 36.7064C130.995 36.7064 130.294 36.0542 130.294 35.2498Z"
          fill="black"/>
    <path d="M130.607 18.1347C130.607 17.4911 131.169 16.9694 131.861 16.9694C132.554 16.9694 133.115 17.4911 133.115 18.1347C133.115 18.7783 132.554 19.3 131.861 19.3C131.169 19.3 130.607 18.7783 130.607 18.1347Z"
          fill="black"/>
    <path d="M130.607 1.16528C130.607 0.521713 131.169 0 131.861 0C132.554 0 133.115 0.521713 133.115 1.16528C133.115 1.80885 132.554 2.33057 131.861 2.33057C131.169 2.33057 130.607 1.80885 130.607 1.16528Z"
          fill="black"/>
    <path d="M103.917 129.044C103.917 127.918 104.899 127.005 106.111 127.005C107.323 127.005 108.306 127.918 108.306 129.044C108.306 130.17 107.323 131.083 106.111 131.083C104.899 131.083 103.917 130.17 103.917 129.044Z"
          fill="black"/>
    <path d="M103.917 145.938C103.917 144.812 104.899 143.899 106.111 143.899C107.323 143.899 108.306 144.812 108.306 145.938C108.306 147.065 107.323 147.978 106.111 147.978C104.899 147.978 103.917 147.065 103.917 145.938Z"
          fill="black"/>
    <path d="M104.23 111.638C104.23 110.672 105.072 109.89 106.111 109.89C107.15 109.89 107.992 110.672 107.992 111.638C107.992 112.603 107.15 113.386 106.111 113.386C105.072 113.386 104.23 112.603 104.23 111.638Z"
          fill="black"/>
    <path d="M104.23 94.7436C104.23 93.7782 105.072 92.9956 106.111 92.9956C107.15 92.9956 107.992 93.7782 107.992 94.7436C107.992 95.7089 107.15 96.4915 106.111 96.4915C105.072 96.4915 104.23 95.7089 104.23 94.7436Z"
          fill="black"/>
    <path d="M104.23 77.8494C104.23 76.884 105.072 76.1014 106.111 76.1014C107.15 76.1014 107.992 76.884 107.992 77.8494C107.992 78.8147 107.15 79.5973 106.111 79.5973C105.072 79.5973 104.23 78.8147 104.23 77.8494Z"
          fill="black"/>
    <path d="M104.23 60.9551C104.23 59.9898 105.072 59.2072 106.111 59.2072C107.15 59.2072 107.992 59.9898 107.992 60.9551C107.992 61.9205 107.15 62.7031 106.111 62.7031C105.072 62.7031 104.23 61.9205 104.23 60.9551Z"
          fill="black"/>
    <path d="M104.544 43.6968C104.544 42.8924 105.245 42.2402 106.111 42.2402C106.977 42.2402 107.679 42.8924 107.679 43.6968C107.679 44.5013 106.977 45.1534 106.111 45.1534C105.245 45.1534 104.544 44.5013 104.544 43.6968Z"
          fill="black"/>
    <path d="M104.544 26.8026C104.544 25.9982 105.245 25.346 106.111 25.346C106.977 25.346 107.679 25.9982 107.679 26.8026C107.679 27.6071 106.977 28.2592 106.111 28.2592C105.245 28.2592 104.544 27.6071 104.544 26.8026Z"
          fill="black"/>
    <path d="M104.857 9.68756C104.857 9.04399 105.419 8.52234 106.111 8.52234C106.804 8.52234 107.365 9.04399 107.365 9.68756C107.365 10.3311 106.804 10.8528 106.111 10.8528C105.419 10.8528 104.857 10.3311 104.857 9.68756Z"
          fill="black"/>
    <path d="M112.089 137.491C112.089 136.365 113.072 135.452 114.284 135.452C115.496 135.452 116.478 136.365 116.478 137.491C116.478 138.617 115.496 139.53 114.284 139.53C113.072 139.53 112.089 138.617 112.089 137.491Z"
          fill="black"/>
    <path d="M112.403 120.085C112.403 119.119 113.245 118.337 114.284 118.337C115.323 118.337 116.165 119.119 116.165 120.085C116.165 121.05 115.323 121.833 114.284 121.833C113.245 121.833 112.403 121.05 112.403 120.085Z"
          fill="black"/>
    <path d="M112.403 103.191C112.403 102.225 113.245 101.443 114.284 101.443C115.323 101.443 116.165 102.225 116.165 103.191C116.165 104.156 115.323 104.939 114.284 104.939C113.245 104.939 112.403 104.156 112.403 103.191Z"
          fill="black"/>
    <path d="M112.403 86.2964C112.403 85.3311 113.245 84.5485 114.284 84.5485C115.323 84.5485 116.165 85.3311 116.165 86.2964C116.165 87.2618 115.323 88.0444 114.284 88.0444C113.245 88.0444 112.403 87.2618 112.403 86.2964Z"
          fill="black"/>
    <path d="M112.403 69.4023C112.403 68.4369 113.245 67.6544 114.284 67.6544C115.323 67.6544 116.165 68.4369 116.165 69.4023C116.165 70.3676 115.323 71.1502 114.284 71.1502C113.245 71.1502 112.403 70.3676 112.403 69.4023Z"
          fill="black"/>
    <path d="M112.716 52.1439C112.716 51.3395 113.418 50.6873 114.284 50.6873C115.149 50.6873 115.851 51.3395 115.851 52.1439C115.851 52.9484 115.149 53.6005 114.284 53.6005C113.418 53.6005 112.716 52.9484 112.716 52.1439Z"
          fill="black"/>
    <path d="M112.716 35.2498C112.716 34.4453 113.418 33.7932 114.284 33.7932C115.149 33.7932 115.851 34.4453 115.851 35.2498C115.851 36.0542 115.149 36.7064 114.284 36.7064C113.418 36.7064 112.716 36.0542 112.716 35.2498Z"
          fill="black"/>
    <path d="M113.03 18.1347C113.03 17.4911 113.591 16.9694 114.284 16.9694C114.976 16.9694 115.538 17.4911 115.538 18.1347C115.538 18.7783 114.976 19.3 114.284 19.3C113.591 19.3 113.03 18.7783 113.03 18.1347Z"
          fill="black"/>
    <path d="M113.03 1.16528C113.03 0.521713 113.591 0 114.284 0C114.976 0 115.538 0.521713 115.538 1.16528C115.538 1.80885 114.976 2.33057 114.284 2.33057C113.591 2.33057 113.03 1.80885 113.03 1.16528Z"
          fill="black"/>
    <path d="M156.022 129.044C156.022 127.918 157.004 127.005 158.216 127.005C159.428 127.005 160.411 127.918 160.411 129.044C160.411 130.17 159.428 131.083 158.216 131.083C157.004 131.083 156.022 130.17 156.022 129.044Z"
          fill="black"/>
    <path d="M156.022 145.938C156.022 144.812 157.004 143.899 158.216 143.899C159.428 143.899 160.411 144.812 160.411 145.938C160.411 147.065 159.428 147.978 158.216 147.978C157.004 147.978 156.022 147.065 156.022 145.938Z"
          fill="black"/>
    <path d="M156.335 111.638C156.335 110.672 157.177 109.89 158.216 109.89C159.255 109.89 160.097 110.672 160.097 111.638C160.097 112.603 159.255 113.386 158.216 113.386C157.177 113.386 156.335 112.603 156.335 111.638Z"
          fill="black"/>
    <path d="M156.335 94.7436C156.335 93.7782 157.177 92.9956 158.216 92.9956C159.255 92.9956 160.097 93.7782 160.097 94.7436C160.097 95.7089 159.255 96.4915 158.216 96.4915C157.177 96.4915 156.335 95.7089 156.335 94.7436Z"
          fill="black"/>
    <path d="M156.335 77.8494C156.335 76.884 157.177 76.1014 158.216 76.1014C159.255 76.1014 160.097 76.884 160.097 77.8494C160.097 78.8147 159.255 79.5973 158.216 79.5973C157.177 79.5973 156.335 78.8147 156.335 77.8494Z"
          fill="black"/>
    <path d="M156.335 60.9551C156.335 59.9898 157.177 59.2072 158.216 59.2072C159.255 59.2072 160.097 59.9898 160.097 60.9551C160.097 61.9205 159.255 62.7031 158.216 62.7031C157.177 62.7031 156.335 61.9205 156.335 60.9551Z"
          fill="black"/>
    <path d="M156.649 43.6968C156.649 42.8924 157.351 42.2402 158.216 42.2402C159.082 42.2402 159.784 42.8924 159.784 43.6968C159.784 44.5013 159.082 45.1534 158.216 45.1534C157.351 45.1534 156.649 44.5013 156.649 43.6968Z"
          fill="black"/>
    <path d="M156.649 26.8026C156.649 25.9982 157.351 25.346 158.216 25.346C159.082 25.346 159.784 25.9982 159.784 26.8026C159.784 27.6071 159.082 28.2592 158.216 28.2592C157.351 28.2592 156.649 27.6071 156.649 26.8026Z"
          fill="black"/>
    <path d="M156.962 9.68756C156.962 9.04399 157.524 8.52234 158.216 8.52234C158.909 8.52234 159.47 9.04399 159.47 9.68756C159.47 10.3311 158.909 10.8528 158.216 10.8528C157.524 10.8528 156.962 10.3311 156.962 9.68756Z"
          fill="black"/>
    <path d="M164.195 137.491C164.195 136.365 165.177 135.452 166.389 135.452C167.601 135.452 168.583 136.365 168.583 137.491C168.583 138.617 167.601 139.53 166.389 139.53C165.177 139.53 164.195 138.617 164.195 137.491Z"
          fill="black"/>
    <path d="M164.508 120.085C164.508 119.119 165.35 118.337 166.389 118.337C167.428 118.337 168.27 119.119 168.27 120.085C168.27 121.05 167.428 121.833 166.389 121.833C165.35 121.833 164.508 121.05 164.508 120.085Z"
          fill="black"/>
    <path d="M164.508 103.191C164.508 102.225 165.35 101.443 166.389 101.443C167.428 101.443 168.27 102.225 168.27 103.191C168.27 104.156 167.428 104.939 166.389 104.939C165.35 104.939 164.508 104.156 164.508 103.191Z"
          fill="black"/>
    <path d="M164.508 86.2964C164.508 85.3311 165.35 84.5485 166.389 84.5485C167.428 84.5485 168.27 85.3311 168.27 86.2964C168.27 87.2618 167.428 88.0444 166.389 88.0444C165.35 88.0444 164.508 87.2618 164.508 86.2964Z"
          fill="black"/>
    <path d="M164.508 69.4023C164.508 68.4369 165.35 67.6544 166.389 67.6544C167.428 67.6544 168.27 68.4369 168.27 69.4023C168.27 70.3676 167.428 71.1502 166.389 71.1502C165.35 71.1502 164.508 70.3676 164.508 69.4023Z"
          fill="black"/>
    <path d="M164.821 52.1439C164.821 51.3395 165.523 50.6873 166.389 50.6873C167.255 50.6873 167.956 51.3395 167.956 52.1439C167.956 52.9484 167.255 53.6005 166.389 53.6005C165.523 53.6005 164.821 52.9484 164.821 52.1439Z"
          fill="black"/>
    <path d="M164.821 35.2498C164.821 34.4453 165.523 33.7932 166.389 33.7932C167.255 33.7932 167.956 34.4453 167.956 35.2498C167.956 36.0542 167.255 36.7064 166.389 36.7064C165.523 36.7064 164.821 36.0542 164.821 35.2498Z"
          fill="black"/>
    <path d="M165.135 18.1347C165.135 17.4911 165.696 16.9694 166.389 16.9694C167.081 16.9694 167.643 17.4911 167.643 18.1347C167.643 18.7783 167.081 19.3 166.389 19.3C165.696 19.3 165.135 18.7783 165.135 18.1347Z"
          fill="black"/>
    <path d="M165.135 1.16528C165.135 0.521713 165.696 0 166.389 0C167.081 0 167.643 0.521713 167.643 1.16528C167.643 1.80885 167.081 2.33057 166.389 2.33057C165.696 2.33057 165.135 1.80885 165.135 1.16528Z"
          fill="black"/>
    <path d="M138.444 129.044C138.444 127.918 139.427 127.005 140.639 127.005C141.851 127.005 142.833 127.918 142.833 129.044C142.833 130.17 141.851 131.083 140.639 131.083C139.427 131.083 138.444 130.17 138.444 129.044Z"
          fill="black"/>
    <path d="M138.444 145.938C138.444 144.812 139.427 143.899 140.639 143.899C141.851 143.899 142.833 144.812 142.833 145.938C142.833 147.065 141.851 147.978 140.639 147.978C139.427 147.978 138.444 147.065 138.444 145.938Z"
          fill="black"/>
    <path d="M138.758 111.638C138.758 110.672 139.6 109.89 140.639 109.89C141.678 109.89 142.52 110.672 142.52 111.638C142.52 112.603 141.678 113.386 140.639 113.386C139.6 113.386 138.758 112.603 138.758 111.638Z"
          fill="black"/>
    <path d="M138.758 94.7436C138.758 93.7782 139.6 92.9956 140.639 92.9956C141.678 92.9956 142.52 93.7782 142.52 94.7436C142.52 95.7089 141.678 96.4915 140.639 96.4915C139.6 96.4915 138.758 95.7089 138.758 94.7436Z"
          fill="black"/>
    <path d="M138.758 77.8494C138.758 76.884 139.6 76.1014 140.639 76.1014C141.678 76.1014 142.52 76.884 142.52 77.8494C142.52 78.8147 141.678 79.5973 140.639 79.5973C139.6 79.5973 138.758 78.8147 138.758 77.8494Z"
          fill="black"/>
    <path d="M138.758 60.9551C138.758 59.9898 139.6 59.2072 140.639 59.2072C141.678 59.2072 142.52 59.9898 142.52 60.9551C142.52 61.9205 141.678 62.7031 140.639 62.7031C139.6 62.7031 138.758 61.9205 138.758 60.9551Z"
          fill="black"/>
    <path d="M139.071 43.6968C139.071 42.8924 139.773 42.2402 140.639 42.2402C141.505 42.2402 142.206 42.8924 142.206 43.6968C142.206 44.5013 141.505 45.1534 140.639 45.1534C139.773 45.1534 139.071 44.5013 139.071 43.6968Z"
          fill="black"/>
    <path d="M139.071 26.8026C139.071 25.9982 139.773 25.346 140.639 25.346C141.505 25.346 142.206 25.9982 142.206 26.8026C142.206 27.6071 141.505 28.2592 140.639 28.2592C139.773 28.2592 139.071 27.6071 139.071 26.8026Z"
          fill="black"/>
    <path d="M139.385 9.68756C139.385 9.04399 139.946 8.52234 140.639 8.52234C141.331 8.52234 141.893 9.04399 141.893 9.68756C141.893 10.3311 141.331 10.8528 140.639 10.8528C139.946 10.8528 139.385 10.3311 139.385 9.68756Z"
          fill="black"/>
    <path d="M146.617 137.491C146.617 136.365 147.6 135.452 148.812 135.452C150.023 135.452 151.006 136.365 151.006 137.491C151.006 138.617 150.023 139.53 148.812 139.53C147.6 139.53 146.617 138.617 146.617 137.491Z"
          fill="black"/>
    <path d="M146.931 120.085C146.931 119.119 147.773 118.337 148.812 118.337C149.85 118.337 150.692 119.119 150.692 120.085C150.692 121.05 149.85 121.833 148.812 121.833C147.773 121.833 146.931 121.05 146.931 120.085Z"
          fill="black"/>
    <path d="M146.931 103.191C146.931 102.225 147.773 101.443 148.812 101.443C149.85 101.443 150.692 102.225 150.692 103.191C150.692 104.156 149.85 104.939 148.812 104.939C147.773 104.939 146.931 104.156 146.931 103.191Z"
          fill="black"/>
    <path d="M146.931 86.2964C146.931 85.3311 147.773 84.5485 148.812 84.5485C149.85 84.5485 150.692 85.3311 150.692 86.2964C150.692 87.2618 149.85 88.0444 148.812 88.0444C147.773 88.0444 146.931 87.2618 146.931 86.2964Z"
          fill="black"/>
    <path d="M146.931 69.4023C146.931 68.4369 147.773 67.6544 148.812 67.6544C149.85 67.6544 150.692 68.4369 150.692 69.4023C150.692 70.3676 149.85 71.1502 148.812 71.1502C147.773 71.1502 146.931 70.3676 146.931 69.4023Z"
          fill="black"/>
    <path d="M147.244 52.1439C147.244 51.3395 147.946 50.6873 148.812 50.6873C149.677 50.6873 150.379 51.3395 150.379 52.1439C150.379 52.9484 149.677 53.6005 148.812 53.6005C147.946 53.6005 147.244 52.9484 147.244 52.1439Z"
          fill="black"/>
    <path d="M147.244 35.2498C147.244 34.4453 147.946 33.7932 148.812 33.7932C149.677 33.7932 150.379 34.4453 150.379 35.2498C150.379 36.0542 149.677 36.7064 148.812 36.7064C147.946 36.7064 147.244 36.0542 147.244 35.2498Z"
          fill="black"/>
    <path d="M147.558 18.1347C147.558 17.4911 148.119 16.9694 148.812 16.9694C149.504 16.9694 150.066 17.4911 150.066 18.1347C150.066 18.7783 149.504 19.3 148.812 19.3C148.119 19.3 147.558 18.7783 147.558 18.1347Z"
          fill="black"/>
    <path d="M147.558 1.16528C147.558 0.521713 148.119 0 148.812 0C149.504 0 150.066 0.521713 150.066 1.16528C150.066 1.80885 149.504 2.33057 148.812 2.33057C148.119 2.33057 147.558 1.80885 147.558 1.16528Z"
          fill="black"/>
    <path d="M17.9107 129.044C17.9107 127.918 18.8932 127.005 20.1051 127.005C21.3171 127.005 22.2995 127.918 22.2995 129.044C22.2995 130.17 21.3171 131.083 20.1051 131.083C18.8932 131.083 17.9107 130.17 17.9107 129.044Z"
          fill="black"/>
    <path d="M17.9107 145.938C17.9107 144.812 18.8932 143.899 20.1051 143.899C21.3171 143.899 22.2995 144.812 22.2995 145.938C22.2995 147.065 21.3171 147.978 20.1051 147.978C18.8932 147.978 17.9107 147.065 17.9107 145.938Z"
          fill="black"/>
    <path d="M18.2242 111.638C18.2242 110.672 19.0663 109.89 20.1051 109.89C21.1439 109.89 21.9861 110.672 21.9861 111.638C21.9861 112.603 21.1439 113.386 20.1051 113.386C19.0663 113.386 18.2242 112.603 18.2242 111.638Z"
          fill="black"/>
    <path d="M18.2242 94.7436C18.2242 93.7782 19.0663 92.9956 20.1051 92.9956C21.1439 92.9956 21.9861 93.7782 21.9861 94.7436C21.9861 95.7089 21.1439 96.4915 20.1051 96.4915C19.0663 96.4915 18.2242 95.7089 18.2242 94.7436Z"
          fill="black"/>
    <path d="M18.2242 77.8494C18.2242 76.884 19.0663 76.1014 20.1051 76.1014C21.1439 76.1014 21.9861 76.884 21.9861 77.8494C21.9861 78.8147 21.1439 79.5973 20.1051 79.5973C19.0663 79.5973 18.2242 78.8147 18.2242 77.8494Z"
          fill="black"/>
    <path d="M18.2242 60.9551C18.2242 59.9898 19.0663 59.2072 20.1051 59.2072C21.1439 59.2072 21.9861 59.9898 21.9861 60.9551C21.9861 61.9205 21.1439 62.7031 20.1051 62.7031C19.0663 62.7031 18.2242 61.9205 18.2242 60.9551Z"
          fill="black"/>
    <path d="M18.5377 43.6968C18.5377 42.8924 19.2394 42.2402 20.1051 42.2402C20.9708 42.2402 21.6726 42.8924 21.6726 43.6968C21.6726 44.5013 20.9708 45.1534 20.1051 45.1534C19.2394 45.1534 18.5377 44.5013 18.5377 43.6968Z"
          fill="black"/>
    <path d="M18.5377 26.8026C18.5377 25.9982 19.2394 25.346 20.1051 25.346C20.9708 25.346 21.6726 25.9982 21.6726 26.8026C21.6726 27.6071 20.9708 28.2592 20.1051 28.2592C19.2394 28.2592 18.5377 27.6071 18.5377 26.8026Z"
          fill="black"/>
    <path d="M18.8512 9.68756C18.8512 9.04399 19.4126 8.52234 20.1051 8.52234C20.7977 8.52234 21.3591 9.04399 21.3591 9.68756C21.3591 10.3311 20.7977 10.8528 20.1051 10.8528C19.4126 10.8528 18.8512 10.3311 18.8512 9.68756Z"
          fill="black"/>
    <path d="M26.0834 137.491C26.0834 136.365 27.0659 135.452 28.2778 135.452C29.4898 135.452 30.4723 136.365 30.4723 137.491C30.4723 138.617 29.4898 139.53 28.2778 139.53C27.0659 139.53 26.0834 138.617 26.0834 137.491Z"
          fill="black"/>
    <path d="M26.3969 120.085C26.3969 119.119 27.239 118.337 28.2778 118.337C29.3167 118.337 30.1588 119.119 30.1588 120.085C30.1588 121.05 29.3167 121.833 28.2778 121.833C27.239 121.833 26.3969 121.05 26.3969 120.085Z"
          fill="black"/>
    <path d="M26.3969 103.191C26.3969 102.225 27.239 101.443 28.2778 101.443C29.3167 101.443 30.1588 102.225 30.1588 103.191C30.1588 104.156 29.3167 104.939 28.2778 104.939C27.239 104.939 26.3969 104.156 26.3969 103.191Z"
          fill="black"/>
    <path d="M26.3969 86.2964C26.3969 85.3311 27.239 84.5485 28.2778 84.5485C29.3167 84.5485 30.1588 85.3311 30.1588 86.2964C30.1588 87.2618 29.3167 88.0444 28.2778 88.0444C27.239 88.0444 26.3969 87.2618 26.3969 86.2964Z"
          fill="black"/>
    <path d="M26.3969 69.4023C26.3969 68.4369 27.239 67.6544 28.2778 67.6544C29.3167 67.6544 30.1588 68.4369 30.1588 69.4023C30.1588 70.3676 29.3167 71.1502 28.2778 71.1502C27.239 71.1502 26.3969 70.3676 26.3969 69.4023Z"
          fill="black"/>
    <path d="M26.7104 52.1439C26.7104 51.3395 27.4122 50.6873 28.2778 50.6873C29.1435 50.6873 29.8453 51.3395 29.8453 52.1439C29.8453 52.9484 29.1435 53.6005 28.2778 53.6005C27.4122 53.6005 26.7104 52.9484 26.7104 52.1439Z"
          fill="black"/>
    <path d="M26.7104 35.2498C26.7104 34.4453 27.4122 33.7932 28.2778 33.7932C29.1435 33.7932 29.8453 34.4453 29.8453 35.2498C29.8453 36.0542 29.1435 36.7064 28.2778 36.7064C27.4122 36.7064 26.7104 36.0542 26.7104 35.2498Z"
          fill="black"/>
    <path d="M27.0239 18.1347C27.0239 17.4911 27.5853 16.9694 28.2778 16.9694C28.9704 16.9694 29.5318 17.4911 29.5318 18.1347C29.5318 18.7783 28.9704 19.3 28.2778 19.3C27.5853 19.3 27.0239 18.7783 27.0239 18.1347Z"
          fill="black"/>
    <path d="M27.0239 1.16528C27.0239 0.521713 27.5853 0 28.2778 0C28.9704 0 29.5318 0.521713 29.5318 1.16528C29.5318 1.80885 28.9704 2.33057 28.2778 2.33057C27.5853 2.33057 27.0239 1.80885 27.0239 1.16528Z"
          fill="black"/>
    <path d="M0.333359 129.044C0.333359 127.918 1.31584 127.005 2.52779 127.005C3.73973 127.005 4.72221 127.918 4.72221 129.044C4.72221 130.17 3.73973 131.083 2.52779 131.083C1.31584 131.083 0.333359 130.17 0.333359 129.044Z"
          fill="black"/>
    <path d="M0.333359 145.938C0.333359 144.812 1.31584 143.899 2.52779 143.899C3.73973 143.899 4.72221 144.812 4.72221 145.938C4.72221 147.065 3.73973 147.978 2.52779 147.978C1.31584 147.978 0.333359 147.065 0.333359 145.938Z"
          fill="black"/>
    <path d="M0.646866 111.638C0.646866 110.672 1.48897 109.89 2.52779 109.89C3.5666 109.89 4.40874 110.672 4.40874 111.638C4.40874 112.603 3.5666 113.386 2.52779 113.386C1.48897 113.386 0.646866 112.603 0.646866 111.638Z"
          fill="black"/>
    <path d="M0.646866 94.7436C0.646866 93.7782 1.48897 92.9956 2.52779 92.9956C3.5666 92.9956 4.40874 93.7782 4.40874 94.7436C4.40874 95.7089 3.5666 96.4915 2.52779 96.4915C1.48897 96.4915 0.646866 95.7089 0.646866 94.7436Z"
          fill="black"/>
    <path d="M0.646866 77.8494C0.646866 76.884 1.48897 76.1014 2.52779 76.1014C3.5666 76.1014 4.40874 76.884 4.40874 77.8494C4.40874 78.8147 3.5666 79.5973 2.52779 79.5973C1.48897 79.5973 0.646866 78.8147 0.646866 77.8494Z"
          fill="black"/>
    <path d="M0.646866 60.9551C0.646866 59.9898 1.48897 59.2072 2.52779 59.2072C3.5666 59.2072 4.40874 59.9898 4.40874 60.9551C4.40874 61.9205 3.5666 62.7031 2.52779 62.7031C1.48897 62.7031 0.646866 61.9205 0.646866 60.9551Z"
          fill="black"/>
    <path d="M0.960342 43.6968C0.960342 42.8924 1.66211 42.2402 2.52779 42.2402C3.39346 42.2402 4.09525 42.8924 4.09525 43.6968C4.09525 44.5013 3.39346 45.1534 2.52779 45.1534C1.66211 45.1534 0.960342 44.5013 0.960342 43.6968Z"
          fill="black"/>
    <path d="M0.960342 26.8026C0.960342 25.9982 1.66211 25.346 2.52779 25.346C3.39346 25.346 4.09525 25.9982 4.09525 26.8026C4.09525 27.6071 3.39346 28.2592 2.52779 28.2592C1.66211 28.2592 0.960342 27.6071 0.960342 26.8026Z"
          fill="black"/>
    <path d="M1.27385 9.68756C1.27385 9.04399 1.83527 8.52234 2.5278 8.52234C3.22034 8.52234 3.78175 9.04399 3.78175 9.68756C3.78175 10.3311 3.22034 10.8528 2.5278 10.8528C1.83527 10.8528 1.27385 10.3311 1.27385 9.68756Z"
          fill="black"/>
    <path d="M8.50601 137.491C8.50601 136.365 9.48849 135.452 10.7004 135.452C11.9124 135.452 12.8949 136.365 12.8949 137.491C12.8949 138.617 11.9124 139.53 10.7004 139.53C9.48849 139.53 8.50601 138.617 8.50601 137.491Z"
          fill="black"/>
    <path d="M8.8195 120.085C8.8195 119.119 9.66162 118.337 10.7004 118.337C11.7393 118.337 12.5814 119.119 12.5814 120.085C12.5814 121.05 11.7393 121.833 10.7004 121.833C9.66162 121.833 8.8195 121.05 8.8195 120.085Z"
          fill="black"/>
    <path d="M8.8195 103.191C8.8195 102.225 9.66162 101.443 10.7004 101.443C11.7393 101.443 12.5814 102.225 12.5814 103.191C12.5814 104.156 11.7393 104.939 10.7004 104.939C9.66162 104.939 8.8195 104.156 8.8195 103.191Z"
          fill="black"/>
    <path d="M8.8195 86.2964C8.8195 85.3311 9.66162 84.5485 10.7004 84.5485C11.7393 84.5485 12.5814 85.3311 12.5814 86.2964C12.5814 87.2618 11.7393 88.0444 10.7004 88.0444C9.66162 88.0444 8.8195 87.2618 8.8195 86.2964Z"
          fill="black"/>
    <path d="M8.8195 69.4023C8.8195 68.4369 9.66162 67.6544 10.7004 67.6544C11.7393 67.6544 12.5814 68.4369 12.5814 69.4023C12.5814 70.3676 11.7393 71.1502 10.7004 71.1502C9.66162 71.1502 8.8195 70.3676 8.8195 69.4023Z"
          fill="black"/>
    <path d="M9.133 52.1439C9.133 51.3395 9.83476 50.6873 10.7004 50.6873C11.5661 50.6873 12.2679 51.3395 12.2679 52.1439C12.2679 52.9484 11.5661 53.6005 10.7004 53.6005C9.83476 53.6005 9.133 52.9484 9.133 52.1439Z"
          fill="black"/>
    <path d="M9.133 35.2498C9.133 34.4453 9.83476 33.7932 10.7004 33.7932C11.5661 33.7932 12.2679 34.4453 12.2679 35.2498C12.2679 36.0542 11.5661 36.7064 10.7004 36.7064C9.83476 36.7064 9.133 36.0542 9.133 35.2498Z"
          fill="black"/>
    <path d="M9.44649 18.1347C9.44649 17.4911 10.0079 16.9694 10.7004 16.9694C11.393 16.9694 11.9544 17.4911 11.9544 18.1347C11.9544 18.7783 11.393 19.3 10.7004 19.3C10.0079 19.3 9.44649 18.7783 9.44649 18.1347Z"
          fill="black"/>
    <path d="M9.44649 1.16528C9.44649 0.521713 10.0079 0 10.7004 0C11.393 0 11.9544 0.521713 11.9544 1.16528C11.9544 1.80885 11.393 2.33057 10.7004 2.33057C10.0079 2.33057 9.44649 1.80885 9.44649 1.16528Z"
          fill="black"/>
    <path d="M86.9663 129.044C86.9663 127.918 87.9487 127.005 89.1607 127.005C90.3726 127.005 91.3551 127.918 91.3551 129.044C91.3551 130.17 90.3726 131.083 89.1607 131.083C87.9487 131.083 86.9663 130.17 86.9663 129.044Z"
          fill="black"/>
    <path d="M86.9663 145.938C86.9663 144.812 87.9487 143.899 89.1607 143.899C90.3726 143.899 91.3551 144.812 91.3551 145.938C91.3551 147.065 90.3726 147.978 89.1607 147.978C87.9487 147.978 86.9663 147.065 86.9663 145.938Z"
          fill="black"/>
    <path d="M87.2797 111.638C87.2797 110.672 88.1219 109.89 89.1607 109.89C90.1995 109.89 91.0416 110.672 91.0416 111.638C91.0416 112.603 90.1995 113.386 89.1607 113.386C88.1219 113.386 87.2797 112.603 87.2797 111.638Z"
          fill="black"/>
    <path d="M87.2797 94.7436C87.2797 93.7782 88.1219 92.9956 89.1607 92.9956C90.1995 92.9956 91.0416 93.7782 91.0416 94.7436C91.0416 95.7089 90.1995 96.4915 89.1607 96.4915C88.1219 96.4915 87.2797 95.7089 87.2797 94.7436Z"
          fill="black"/>
    <path d="M87.2797 77.8494C87.2797 76.884 88.1219 76.1014 89.1607 76.1014C90.1995 76.1014 91.0416 76.884 91.0416 77.8494C91.0416 78.8147 90.1995 79.5973 89.1607 79.5973C88.1219 79.5973 87.2797 78.8147 87.2797 77.8494Z"
          fill="black"/>
    <path d="M87.2797 60.9551C87.2797 59.9898 88.1219 59.2072 89.1607 59.2072C90.1995 59.2072 91.0416 59.9898 91.0416 60.9551C91.0416 61.9205 90.1995 62.7031 89.1607 62.7031C88.1219 62.7031 87.2797 61.9205 87.2797 60.9551Z"
          fill="black"/>
    <path d="M87.5932 43.6968C87.5932 42.8924 88.295 42.2402 89.1607 42.2402C90.0264 42.2402 90.7281 42.8924 90.7281 43.6968C90.7281 44.5013 90.0264 45.1534 89.1607 45.1534C88.295 45.1534 87.5932 44.5013 87.5932 43.6968Z"
          fill="black"/>
    <path d="M87.5932 26.8026C87.5932 25.9982 88.295 25.346 89.1607 25.346C90.0264 25.346 90.7281 25.9982 90.7281 26.8026C90.7281 27.6071 90.0264 28.2592 89.1607 28.2592C88.295 28.2592 87.5932 27.6071 87.5932 26.8026Z"
          fill="black"/>
    <path d="M87.9067 9.68756C87.9067 9.04399 88.4681 8.52234 89.1607 8.52234C89.8532 8.52234 90.4146 9.04399 90.4146 9.68756C90.4146 10.3311 89.8532 10.8528 89.1607 10.8528C88.4681 10.8528 87.9067 10.3311 87.9067 9.68756Z"
          fill="black"/>
    <path d="M95.139 137.491C95.139 136.365 96.1215 135.452 97.3334 135.452C98.5453 135.452 99.5278 136.365 99.5278 137.491C99.5278 138.617 98.5453 139.53 97.3334 139.53C96.1215 139.53 95.139 138.617 95.139 137.491Z"
          fill="black"/>
    <path d="M95.4525 120.085C95.4525 119.119 96.2946 118.337 97.3334 118.337C98.3722 118.337 99.2143 119.119 99.2143 120.085C99.2143 121.05 98.3722 121.833 97.3334 121.833C96.2946 121.833 95.4525 121.05 95.4525 120.085Z"
          fill="black"/>
    <path d="M95.4525 103.191C95.4525 102.225 96.2946 101.443 97.3334 101.443C98.3722 101.443 99.2143 102.225 99.2143 103.191C99.2143 104.156 98.3722 104.939 97.3334 104.939C96.2946 104.939 95.4525 104.156 95.4525 103.191Z"
          fill="black"/>
    <path d="M95.4525 86.2964C95.4525 85.3311 96.2946 84.5485 97.3334 84.5485C98.3722 84.5485 99.2143 85.3311 99.2143 86.2964C99.2143 87.2618 98.3722 88.0444 97.3334 88.0444C96.2946 88.0444 95.4525 87.2618 95.4525 86.2964Z"
          fill="black"/>
    <path d="M95.4525 69.4023C95.4525 68.4369 96.2946 67.6544 97.3334 67.6544C98.3722 67.6544 99.2143 68.4369 99.2143 69.4023C99.2143 70.3676 98.3722 71.1502 97.3334 71.1502C96.2946 71.1502 95.4525 70.3676 95.4525 69.4023Z"
          fill="black"/>
    <path d="M95.766 52.1439C95.766 51.3395 96.4677 50.6873 97.3334 50.6873C98.1991 50.6873 98.9008 51.3395 98.9008 52.1439C98.9008 52.9484 98.1991 53.6005 97.3334 53.6005C96.4677 53.6005 95.766 52.9484 95.766 52.1439Z"
          fill="black"/>
    <path d="M95.766 35.2498C95.766 34.4453 96.4677 33.7932 97.3334 33.7932C98.1991 33.7932 98.9008 34.4453 98.9008 35.2498C98.9008 36.0542 98.1991 36.7064 97.3334 36.7064C96.4677 36.7064 95.766 36.0542 95.766 35.2498Z"
          fill="black"/>
    <path d="M96.0794 18.1347C96.0794 17.4911 96.6409 16.9694 97.3334 16.9694C98.0259 16.9694 98.5874 17.4911 98.5874 18.1347C98.5874 18.7783 98.0259 19.3 97.3334 19.3C96.6409 19.3 96.0794 18.7783 96.0794 18.1347Z"
          fill="black"/>
    <path d="M96.0794 1.16528C96.0794 0.521713 96.6409 0 97.3334 0C98.0259 0 98.5874 0.521713 98.5874 1.16528C98.5874 1.80885 98.0259 2.33057 97.3334 2.33057C96.6409 2.33057 96.0794 1.80885 96.0794 1.16528Z"
          fill="black"/>
    <path d="M69.3889 129.044C69.3889 127.918 70.3714 127.005 71.5833 127.005C72.7953 127.005 73.7778 127.918 73.7778 129.044C73.7778 130.17 72.7953 131.083 71.5833 131.083C70.3714 131.083 69.3889 130.17 69.3889 129.044Z"
          fill="black"/>
    <path d="M69.3889 145.938C69.3889 144.812 70.3714 143.899 71.5833 143.899C72.7953 143.899 73.7778 144.812 73.7778 145.938C73.7778 147.065 72.7953 147.978 71.5833 147.978C70.3714 147.978 69.3889 147.065 69.3889 145.938Z"
          fill="black"/>
    <path d="M69.7024 111.638C69.7024 110.672 70.5445 109.89 71.5833 109.89C72.6222 109.89 73.4643 110.672 73.4643 111.638C73.4643 112.603 72.6222 113.386 71.5833 113.386C70.5445 113.386 69.7024 112.603 69.7024 111.638Z"
          fill="black"/>
    <path d="M69.7024 94.7436C69.7024 93.7782 70.5445 92.9956 71.5833 92.9956C72.6222 92.9956 73.4643 93.7782 73.4643 94.7436C73.4643 95.7089 72.6222 96.4915 71.5833 96.4915C70.5445 96.4915 69.7024 95.7089 69.7024 94.7436Z"
          fill="black"/>
    <path d="M69.7024 77.8494C69.7024 76.884 70.5445 76.1014 71.5833 76.1014C72.6222 76.1014 73.4643 76.884 73.4643 77.8494C73.4643 78.8147 72.6222 79.5973 71.5833 79.5973C70.5445 79.5973 69.7024 78.8147 69.7024 77.8494Z"
          fill="black"/>
    <path d="M69.7024 60.9551C69.7024 59.9898 70.5445 59.2072 71.5833 59.2072C72.6222 59.2072 73.4643 59.9898 73.4643 60.9551C73.4643 61.9205 72.6222 62.7031 71.5833 62.7031C70.5445 62.7031 69.7024 61.9205 69.7024 60.9551Z"
          fill="black"/>
    <path d="M70.0159 43.6968C70.0159 42.8924 70.7177 42.2402 71.5833 42.2402C72.449 42.2402 73.1508 42.8924 73.1508 43.6968C73.1508 44.5013 72.449 45.1534 71.5833 45.1534C70.7177 45.1534 70.0159 44.5013 70.0159 43.6968Z"
          fill="black"/>
    <path d="M70.0159 26.8026C70.0159 25.9982 70.7177 25.346 71.5833 25.346C72.449 25.346 73.1508 25.9982 73.1508 26.8026C73.1508 27.6071 72.449 28.2592 71.5833 28.2592C70.7177 28.2592 70.0159 27.6071 70.0159 26.8026Z"
          fill="black"/>
    <path d="M70.3293 9.68756C70.3293 9.04399 70.8907 8.52234 71.5833 8.52234C72.2758 8.52234 72.8372 9.04399 72.8372 9.68756C72.8372 10.3311 72.2758 10.8528 71.5833 10.8528C70.8907 10.8528 70.3293 10.3311 70.3293 9.68756Z"
          fill="black"/>
    <path d="M77.5616 137.491C77.5616 136.365 78.5441 135.452 79.756 135.452C80.968 135.452 81.9504 136.365 81.9504 137.491C81.9504 138.617 80.968 139.53 79.756 139.53C78.5441 139.53 77.5616 138.617 77.5616 137.491Z"
          fill="black"/>
    <path d="M77.8751 120.085C77.8751 119.119 78.7172 118.337 79.756 118.337C80.7948 118.337 81.6369 119.119 81.6369 120.085C81.6369 121.05 80.7948 121.833 79.756 121.833C78.7172 121.833 77.8751 121.05 77.8751 120.085Z"
          fill="black"/>
    <path d="M77.8751 103.191C77.8751 102.225 78.7172 101.443 79.756 101.443C80.7948 101.443 81.6369 102.225 81.6369 103.191C81.6369 104.156 80.7948 104.939 79.756 104.939C78.7172 104.939 77.8751 104.156 77.8751 103.191Z"
          fill="black"/>
    <path d="M77.8751 86.2964C77.8751 85.3311 78.7172 84.5485 79.756 84.5485C80.7948 84.5485 81.6369 85.3311 81.6369 86.2964C81.6369 87.2618 80.7948 88.0444 79.756 88.0444C78.7172 88.0444 77.8751 87.2618 77.8751 86.2964Z"
          fill="black"/>
    <path d="M77.8751 69.4023C77.8751 68.4369 78.7172 67.6544 79.756 67.6544C80.7948 67.6544 81.6369 68.4369 81.6369 69.4023C81.6369 70.3676 80.7948 71.1502 79.756 71.1502C78.7172 71.1502 77.8751 70.3676 77.8751 69.4023Z"
          fill="black"/>
    <path d="M78.1886 52.1439C78.1886 51.3395 78.8903 50.6873 79.756 50.6873C80.6217 50.6873 81.3235 51.3395 81.3235 52.1439C81.3235 52.9484 80.6217 53.6005 79.756 53.6005C78.8903 53.6005 78.1886 52.9484 78.1886 52.1439Z"
          fill="black"/>
    <path d="M78.1886 35.2498C78.1886 34.4453 78.8903 33.7932 79.756 33.7932C80.6217 33.7932 81.3235 34.4453 81.3235 35.2498C81.3235 36.0542 80.6217 36.7064 79.756 36.7064C78.8903 36.7064 78.1886 36.0542 78.1886 35.2498Z"
          fill="black"/>
    <path d="M78.502 18.1347C78.502 17.4911 79.0635 16.9694 79.756 16.9694C80.4486 16.9694 81.01 17.4911 81.01 18.1347C81.01 18.7783 80.4486 19.3 79.756 19.3C79.0635 19.3 78.502 18.7783 78.502 18.1347Z"
          fill="black"/>
    <path d="M78.502 1.16528C78.502 0.521713 79.0635 0 79.756 0C80.4486 0 81.01 0.521713 81.01 1.16528C81.01 1.80885 80.4486 2.33057 79.756 2.33057C79.0635 2.33057 78.502 1.80885 78.502 1.16528Z"
          fill="black"/>
</svg>